<svg width="40" height="40" viewBox="0 0 40 40" fill="none" xmlns="http://www.w3.org/2000/svg">
<rect width="40" height="40" rx="20" fill="#01AA8C"/>
<path d="M13.136 15.3C14.352 15.3 15.312 15.556 15.984 16.068C16.656 16.58 17.008 17.3 17.008 18.212C17.008 18.884 16.816 19.444 16.464 19.876C16.112 20.308 15.6 20.596 14.928 20.74C16.592 21.028 17.44 21.908 17.44 23.38C17.44 24.356 17.072 25.124 16.352 25.668C15.632 26.228 14.608 26.5 13.28 26.5H9.024V15.3H13.136ZM10.864 20.052H13.184C13.808 20.052 14.288 19.908 14.64 19.62C14.992 19.332 15.168 18.948 15.168 18.436C15.168 17.94 14.992 17.556 14.64 17.268C14.288 16.98 13.808 16.836 13.184 16.836H10.864V20.052ZM10.864 24.948H13.296C14.016 24.948 14.576 24.804 14.96 24.516C15.344 24.228 15.552 23.812 15.552 23.284C15.552 22.74 15.344 22.324 14.96 22.02C14.56 21.732 14 21.572 13.296 21.572H10.864V24.948ZM19.149 15.3H21.533L25.117 24.116L28.637 15.3H30.973V26.5H29.197V18.26L25.837 26.5H24.285L20.925 18.26V26.5H19.149V15.3Z" fill="white"/>
</svg>
